<?xml version="1.0" encoding="UTF-8" ?>
<!DOCTYPE svg PUBLIC "-//W3C//DTD SVG 1.1//EN" "http://www.w3.org/Graphics/SVG/1.1/DTD/svg11.dtd">
<svg width="183pt" height="67pt" viewBox="0 0 183 67" version="1.1" xmlns="http://www.w3.org/2000/svg">
<path fill="#ffffff" d=" M 0.00 0.00 L 183.00 0.00 L 183.00 67.00 L 0.00 67.00 L 0.00 0.00 Z" />
<path fill="#000000" d=" M 108.51 3.39 C 111.42 2.96 114.26 2.22 117.03 1.23 C 116.95 3.53 116.86 5.82 116.75 8.11 C 114.02 8.38 111.29 8.59 108.56 8.85 C 108.54 7.03 108.52 5.21 108.51 3.39 Z" />
<path fill="#000000" d=" M 118.39 1.14 C 121.28 1.68 124.19 2.07 127.12 2.31 C 126.76 4.36 126.41 6.40 126.05 8.45 C 123.64 8.44 121.24 8.37 118.84 8.24 C 118.65 5.88 118.52 3.51 118.39 1.14 Z" />
<path fill="#000000" d=" M 129.04 1.31 C 130.82 1.88 132.61 2.43 134.41 2.95 C 133.75 5.22 133.07 7.49 132.36 9.74 C 130.89 9.46 129.43 9.18 127.96 8.88 C 128.32 6.36 128.69 3.83 129.04 1.31 Z" />
<path fill="#000000" d=" M 99.95 4.27 C 102.27 3.98 104.59 3.63 106.90 3.26 C 106.90 5.36 106.90 7.45 106.89 9.55 C 104.73 9.55 102.58 9.59 100.42 9.62 C 100.25 7.84 100.09 6.05 99.95 4.27 Z" />
<path fill="#000000" d=" M 136.03 3.21 C 138.78 3.30 141.53 3.26 144.28 3.13 C 143.43 5.91 142.94 8.87 141.38 11.36 C 139.18 12.52 136.43 11.51 134.03 11.57 C 134.66 8.77 135.36 5.99 136.03 3.21 Z" />
<path fill="#000000" d=" M 90.42 7.03 C 93.46 6.94 96.21 5.71 98.74 4.11 C 98.88 8.76 96.60 12.88 95.83 17.36 C 93.62 19.13 91.84 21.32 91.42 24.21 C 94.21 23.83 97.00 23.35 99.83 23.34 C 97.24 25.13 94.05 25.44 91.06 26.04 C 91.19 19.69 91.41 13.33 90.42 7.03 Z" />
<path fill="#000000" d=" M 145.87 4.70 C 149.78 5.10 153.67 3.82 157.57 4.55 C 160.35 4.98 163.06 5.80 165.75 6.61 C 164.68 11.47 163.35 16.27 161.80 21.01 C 157.60 20.07 153.42 19.06 149.16 18.45 C 149.27 19.14 149.49 20.51 149.59 21.20 C 153.49 21.90 157.37 22.75 161.18 23.85 C 159.34 30.74 157.45 37.61 155.44 44.44 C 153.73 50.41 152.70 56.61 150.24 62.33 C 143.74 62.89 137.76 59.30 132.44 55.98 C 133.03 53.81 133.60 51.63 134.11 49.44 C 135.61 49.50 137.10 49.56 138.61 49.60 C 138.19 46.81 137.13 44.14 136.91 41.32 C 137.23 37.51 138.39 33.82 139.27 30.10 C 140.01 26.38 143.16 23.96 144.94 20.78 C 146.05 18.75 147.16 16.72 148.39 14.76 C 146.93 13.97 145.47 13.19 144.01 12.40 C 144.58 9.82 145.21 7.26 145.87 4.70 Z" />
<path fill="#000000" d=" M 30.34 5.10 C 34.81 5.95 39.52 6.29 43.66 8.31 C 45.81 10.73 47.61 13.64 50.98 14.51 C 46.76 31.15 44.65 48.23 41.44 65.08 C 40.00 64.08 38.57 63.07 37.12 62.08 C 35.01 62.77 32.88 64.06 30.59 63.51 C 26.13 62.73 21.77 61.49 17.41 60.32 C 20.40 48.75 22.49 36.96 26.03 25.54 C 31.22 26.73 36.40 28.21 41.76 28.26 C 40.77 27.16 39.99 25.64 38.35 25.46 C 34.42 24.44 30.41 23.77 26.44 22.95 C 27.00 16.86 28.45 10.91 30.34 5.10 Z" />
<path fill="#000000" d=" M 82.02 9.85 C 84.23 9.50 86.37 8.83 88.47 8.08 C 88.40 13.43 88.60 18.76 88.89 24.10 C 89.39 28.01 86.05 31.10 86.36 34.96 C 86.26 38.08 89.61 39.94 89.82 42.99 C 90.19 48.85 90.10 54.74 90.91 60.57 C 88.44 60.17 86.02 60.70 83.80 61.80 C 83.29 44.48 82.78 27.16 82.02 9.85 Z" />
<path fill="#000000" d=" M 8.73 12.73 C 13.16 10.03 18.47 7.63 23.75 8.86 C 23.80 9.31 23.91 10.22 23.96 10.67 C 17.90 13.21 10.96 15.38 7.38 21.40 C 4.37 26.95 3.31 34.07 6.07 39.93 C 8.11 44.81 11.26 49.09 14.34 53.34 C 10.70 52.19 7.10 50.30 5.05 46.95 C 0.47 40.28 0.61 31.79 1.39 24.08 C 1.89 19.39 4.72 15.16 8.73 12.73 Z" />
<path fill="#000000" d=" M 77.02 13.04 C 78.13 11.92 79.24 10.80 80.37 9.70 C 80.73 19.80 80.16 29.92 80.85 40.02 C 81.01 47.51 81.55 55.00 81.57 62.50 C 78.25 61.06 75.05 62.44 72.18 64.16 C 73.09 51.20 71.87 38.18 72.80 25.23 C 73.97 20.87 73.01 16.43 72.65 12.04 C 74.11 12.36 75.56 12.70 77.02 13.04 Z" />
<path fill="#000000" d=" M 53.17 12.32 C 55.92 13.60 58.88 13.53 61.56 12.08 C 61.50 14.34 61.45 16.60 61.38 18.86 C 58.10 18.18 54.63 17.80 51.62 19.62 C 52.17 17.19 52.70 14.76 53.17 12.32 Z" />
<path fill="#000000" d=" M 63.09 12.41 C 65.75 12.71 68.43 12.76 71.09 12.44 C 70.93 14.58 70.77 16.72 70.62 18.87 C 69.77 18.10 68.92 17.33 68.07 16.56 C 66.43 17.40 64.78 18.23 63.13 19.04 C 63.12 16.83 63.13 14.62 63.09 12.41 Z" />
<path fill="#000000" d=" M 168.17 14.94 C 168.83 13.80 169.54 12.69 170.29 11.61 C 175.81 13.57 179.17 18.91 180.73 24.31 C 183.29 31.68 181.92 40.64 176.22 46.21 C 171.57 50.86 165.68 54.70 159.05 55.61 C 162.68 52.26 167.68 50.75 170.92 46.92 C 176.43 41.49 178.74 33.24 177.27 25.69 C 176.19 20.82 171.88 17.80 168.17 14.94 Z" />
<path fill="#000000" d=" M 18.07 18.67 C 19.28 18.67 20.49 18.68 21.71 18.69 C 21.61 19.41 21.43 20.84 21.34 21.56 C 20.29 21.76 19.24 21.95 18.20 22.14 C 18.16 21.27 18.10 19.54 18.07 18.67 Z" />
<path fill="#000000" d=" M 104.18 20.32 C 104.66 20.49 105.60 20.85 106.07 21.03 C 105.49 21.88 104.90 22.72 104.32 23.57 C 105.23 24.47 106.14 25.38 107.04 26.30 C 104.92 25.81 102.82 25.25 100.74 24.65 C 101.90 23.22 103.06 21.78 104.18 20.32 Z" />
<path fill="#000000" d=" M 167.24 19.75 C 168.50 20.11 169.77 20.47 171.03 20.83 C 170.52 21.90 170.01 22.96 169.50 24.02 C 168.29 23.74 167.09 23.45 165.89 23.15 C 166.33 22.02 166.78 20.88 167.24 19.75 Z" />
<path fill="#000000" d=" M 67.97 21.23 C 69.84 20.57 70.15 23.59 68.43 23.89 C 66.49 24.60 66.20 21.54 67.97 21.23 Z" />
<path fill="#000000" d=" M 51.30 21.76 C 52.89 21.93 54.48 22.12 56.07 22.30 C 55.41 24.57 54.37 26.77 54.19 29.14 C 54.51 32.68 56.47 36.06 55.63 39.68 C 53.90 47.87 52.53 56.12 51.66 64.45 C 48.80 64.42 46.02 65.11 43.32 66.00 C 44.02 57.76 46.27 49.81 48.10 41.79 C 49.06 35.09 50.38 28.46 51.30 21.76 Z" />
<path fill="#000000" d=" M 15.91 26.06 C 17.40 26.28 18.89 26.51 20.37 26.76 C 19.91 27.86 19.44 28.95 18.97 30.05 C 18.17 29.96 16.56 29.79 15.76 29.70 C 15.81 28.49 15.86 27.27 15.91 26.06 Z" />
<path fill="#000000" d=" M 114.01 26.60 C 115.17 25.84 116.57 27.82 115.51 28.68 C 114.33 29.40 112.88 27.48 114.01 26.60 Z" />
<path fill="#000000" d=" M 164.80 26.19 C 166.23 26.36 167.65 26.55 169.08 26.73 C 168.85 29.58 166.47 30.00 164.08 29.62 C 164.26 28.76 164.62 27.05 164.80 26.19 Z" />
<path fill="#000000" d=" M 104.88 26.34 C 106.80 28.26 107.70 30.82 107.91 33.49 C 106.19 31.46 105.15 28.98 104.88 26.34 Z" />
<path fill="#000000" d=" M 65.32 37.22 C 65.67 33.44 67.78 30.33 70.23 27.57 C 70.16 32.87 70.06 38.16 69.94 43.46 C 67.39 42.22 64.77 41.09 62.09 40.16 C 62.35 38.09 62.59 36.02 62.88 33.95 C 63.70 35.03 64.50 36.13 65.32 37.22 Z" />
<path fill="#000000" d=" M 131.89 38.65 C 133.37 35.54 134.57 32.23 136.83 29.57 C 136.50 35.23 134.78 40.76 131.52 45.42 C 131.36 49.27 131.34 53.14 130.50 56.94 C 129.43 56.80 128.36 56.66 127.30 56.51 C 127.77 50.03 127.88 43.52 128.74 37.08 C 129.79 37.60 130.84 38.12 131.89 38.65 Z" />
<path fill="#000000" d=" M 110.94 31.24 C 112.59 31.56 114.25 31.88 115.90 32.20 C 117.68 39.93 117.19 47.92 118.55 55.71 C 116.63 56.06 114.71 56.43 112.80 56.85 C 112.27 48.32 108.79 39.77 110.94 31.24 Z" />
<path fill="#000000" d=" M 118.98 31.73 C 119.89 33.05 120.77 34.39 121.65 35.72 C 123.13 34.69 124.63 33.70 126.17 32.76 C 126.89 40.44 125.99 48.16 125.30 55.80 C 123.74 56.03 122.18 56.26 120.63 56.50 C 119.99 48.25 119.55 39.99 118.98 31.73 Z" />
<path fill="#000000" d=" M 13.59 37.45 C 14.11 35.14 15.32 33.28 17.83 32.95 C 17.84 34.48 17.83 36.01 17.81 37.54 C 16.41 37.52 15.00 37.49 13.59 37.45 Z" />
<path fill="#000000" d=" M 163.44 32.95 C 164.84 33.32 166.23 33.70 167.62 34.09 C 166.46 36.25 164.51 37.12 162.14 36.66 C 162.57 35.42 163.00 34.18 163.44 32.95 Z" />
<path fill="#000000" d=" M 107.42 37.32 C 109.86 44.14 109.76 51.47 110.97 58.53 C 107.50 56.62 104.16 58.69 101.09 60.33 C 103.11 57.47 105.43 54.61 106.01 51.05 C 106.78 46.51 106.52 41.85 107.42 37.32 Z" />
<path fill="#000000" d=" M 13.72 41.14 C 14.68 41.30 16.61 41.61 17.57 41.77 C 16.49 43.22 15.27 44.56 13.92 45.76 C 13.83 44.22 13.76 42.68 13.72 41.14 Z" />
<path fill="#000000" d=" M 56.62 44.28 C 56.78 42.71 57.73 41.41 58.54 40.11 C 58.66 48.28 57.15 57.09 61.82 64.38 C 58.86 64.00 55.92 64.46 53.19 65.64 C 54.32 58.52 55.68 51.43 56.62 44.28 Z" />
<path fill="#000000" d=" M 92.24 39.85 C 97.99 45.12 95.26 53.74 99.48 59.73 C 97.05 59.09 94.62 59.50 92.42 60.63 C 92.79 53.69 91.50 46.77 92.24 39.85 Z" />
<path fill="#000000" d=" M 160.81 42.13 C 162.26 42.35 163.70 42.58 165.15 42.81 C 164.70 43.87 164.25 44.92 163.79 45.97 C 162.63 45.62 161.46 45.27 160.30 44.91 C 160.43 44.22 160.69 42.82 160.81 42.13 Z" />
<path fill="#000000" d=" M 65.59 56.64 C 68.08 54.91 69.41 52.20 70.74 49.58 C 70.53 53.90 70.51 58.22 70.53 62.54 C 68.10 63.21 65.72 64.04 63.36 64.91 C 63.70 62.09 62.71 58.39 65.59 56.64 Z" />
</svg>

